<svg id="Layer_1" data-name="Layer 1" xmlns="http://www.w3.org/2000/svg" viewBox="0 0 100 100"><g id="surface1"><path d="M12.13,0A11.91,11.91,0,1,0,24,11.91,11.89,11.89,0,0,0,12.13,0ZM50.22,0a11.91,11.91,0,1,0,11.9,11.91A11.89,11.89,0,0,0,50.22,0ZM88.31,0a11.91,11.91,0,1,0,11.91,11.91A11.89,11.89,0,0,0,88.31,0ZM12.13,38.09A11.91,11.91,0,1,0,24,50,11.9,11.9,0,0,0,12.13,38.09Zm38.09,0A11.91,11.91,0,1,0,62.12,50,11.9,11.9,0,0,0,50.22,38.09Zm38.09,0A11.91,11.91,0,1,0,100.22,50,11.9,11.9,0,0,0,88.31,38.09ZM12.13,76.19A11.91,11.91,0,1,0,24,88.09,11.89,11.89,0,0,0,12.13,76.19Zm38.09,0a11.91,11.91,0,1,0,11.9,11.9A11.89,11.89,0,0,0,50.22,76.19Zm38.09,0a11.91,11.91,0,1,0,11.91,11.9A11.89,11.89,0,0,0,88.31,76.19Z" fill="#fff"/></g></svg>