<svg id="Layer_1" data-name="Layer 1" xmlns="http://www.w3.org/2000/svg" viewBox="0 0 100 100"><rect y="-108.65" width="531.56" height="512" opacity="0.5"/><g id="surface1"><path d="M50.19,0a18.92,18.92,0,0,0-2.11.09C38.37,1,31.25,9.55,30.84,19.23h7.67A11.78,11.78,0,0,1,47.7,7.92,11.56,11.56,0,0,1,61.54,19.23h7.69A19.26,19.26,0,0,0,50.19,0Zm19,19.23v7.69a3.85,3.85,0,1,1-7.69,0V19.23h-23a3.44,3.44,0,0,0,0,.45v7.24a3.85,3.85,0,1,1-7.69,0V20.09c0-.29.06-.57.07-.86H7.69V92.31a7.69,7.69,0,0,0,7.7,7.69H84.62a7.69,7.69,0,0,0,7.69-7.69V19.23ZM42.31,46.15a3.59,3.59,0,0,1,1.75.49L63.34,58.2a3.81,3.81,0,0,1,2,3.34,3.77,3.77,0,0,1-2,3.32L44.06,76.44a3.58,3.58,0,0,1-1.75.48,3.85,3.85,0,0,1-3.85-3.84V50A3.86,3.86,0,0,1,42.31,46.15Z" fill="#fff"/></g></svg>