<svg id="Layer_1" data-name="Layer 1" xmlns="http://www.w3.org/2000/svg" viewBox="0 0 100 100"><g id="surface1"><path d="M50,0C30.83,0,10.88,4.33,10.88,4.33A8.33,8.33,0,0,0,4.17,12.5v25c0,43.33,41.75,61.44,41.75,61.44A8.55,8.55,0,0,0,50,100a8.41,8.41,0,0,0,4-1.06h0S95.83,80.83,95.83,37.5v-25a8.32,8.32,0,0,0-6.71-8.17S69.18,0,50,0Zm0,16.67a12.5,12.5,0,0,1,12.5,12.5V37.5h4.17a4.17,4.17,0,0,1,4.16,4.17V62.5a4.17,4.17,0,0,1-4.16,4.17H33.33a4.17,4.17,0,0,1-4.16-4.17V41.67a4.17,4.17,0,0,1,4.16-4.17H37.5V29.17A12.5,12.5,0,0,1,50,16.67ZM50,25a4.18,4.18,0,0,0-4.17,4.17V37.5h8.34V29.17A4.18,4.18,0,0,0,50,25Z" fill="#fff"/></g></svg>